<svg id="tp-logo" version="1.1" xmlns="http://www.w3.org/2000/svg" viewBox="0 0 320.2 320.2">
  <path
    d="M121.7,230c17.2,9.7,35.7,12.5,55.2,8.5c43.4-9.1,71-52,61.5-95.4c-9-41.1-49.3-69.7-93.2-61.3c-30,5.7-53.8,27.9-62,57.3
c-0.3,0.9-0.6,1.2-1.6,1.2c-0.5,0-0.9,0-1.4,0v39.9c0.1,0,0.1,0,0.2,0c0,0.6,0,1.2,0,1.7c0,38.5,0,77,0,115.4c0,1,0.3,1.5,1.1,2
c11.4,6.4,23.3,11.4,35.9,14.9c1,0.3,2,0.5,3.1,0.8c0-28.6,0-57,0-85.6C121,229.6,121.3,229.8,121.7,230z M120.2,160.4
c0-22.2,17.8-40.2,39.9-40.2c22.2,0,40.1,17.8,40.1,40c0,22.1-17.9,40-40,40C138.2,200.2,120.2,182.4,120.2,160.4z"
  />
  <g>
    <path
      d="M320.1,160.4c-13.3,0-26.5,0-39.7,0c-1.1,38.8-16.2,70.8-46.8,94.6c-30.7,23.8-65.5,30.2-103.3,21.7c0,0.2,0,0.3,0,0.5
  c0,13.1,0,26.2,0,39.4c0,0.8,0.3,1,1,1.1c6,0.7,11.9,1.8,18,2.2c16.1,1.2,32-0.1,47.6-3.8c52.9-12.5,96-51.2,114.2-102.4
  c5.4-15.1,8.3-30.7,9-46.8C320.2,164.7,320.1,162.5,320.1,160.4z"
    />
    <path
      d="M40.3,140.2c0-0.6,0-1.1,0-1.6c0-45.6,0-91.3,0-136.9c0-0.5,0-1,0.1-1.4c-13.4,0-26.7,0-40.1,0c0,55.3,0,110.6,0,165.8
  c0.1,0.5,0.2,1,0.2,1.5c0.4,8.8,1.5,17.6,3.4,26.2c9.2,41.1,31.2,73.6,65.5,97.9c0.2,0.2,0.5,0.3,0.9,0.5c0-0.5,0.1-0.9,0.1-1.3
  c0-16.8,0-33.5,0-50.3c0-0.7-0.3-1.6-0.8-2.1c-12.2-14.2-20.7-30.3-25.4-48.4c-0.8-3.2-1.5-6.5-2.2-9.9c12.8,0,25.5,0,38.2,0v-39.9
  c-12.8,0-25.7,0-38.6,0C41.2,140.3,40.8,140.3,40.3,140.2z"
    />
  </g>
</svg>